<svg width="8" height="8" viewBox="0 0 8 8" fill="none" xmlns="http://www.w3.org/2000/svg">
<path d="M4.00004 7.00049C3.95617 7.00075 3.91268 6.99234 3.87207 6.97575C3.83146 6.95916 3.79452 6.93472 3.76337 6.90383L1.17337 4.31049C0.848493 3.98222 0.66626 3.53902 0.66626 3.07716C0.66626 2.6153 0.848493 2.1721 1.17337 1.84383C1.50079 1.51733 1.94432 1.33398 2.40671 1.33398C2.8691 1.33398 3.31262 1.51733 3.64004 1.84383L4.00004 2.20383L4.36004 1.84383C4.68746 1.51733 5.13098 1.33398 5.59337 1.33398C6.05576 1.33398 6.49928 1.51733 6.82671 1.84383C7.15159 2.1721 7.33382 2.6153 7.33382 3.07716C7.33382 3.53902 7.15159 3.98222 6.82671 4.31049L4.23671 6.90383C4.20556 6.93472 4.16862 6.95916 4.12801 6.97575C4.0874 6.99234 4.04391 7.00075 4.00004 7.00049ZM2.40671 2.00049C2.2656 1.99986 2.12577 2.02722 1.99531 2.08101C1.86485 2.13479 1.74636 2.21393 1.64671 2.31383C1.44539 2.5162 1.33238 2.79004 1.33238 3.07549C1.33238 3.36094 1.44539 3.63479 1.64671 3.83716L4.00004 6.19383L6.35337 3.83716C6.55469 3.63479 6.66769 3.36094 6.66769 3.07549C6.66769 2.79004 6.55469 2.5162 6.35337 2.31383C6.14793 2.11973 5.87601 2.01159 5.59337 2.01159C5.31074 2.01159 5.03882 2.11973 4.83337 2.31383L4.23671 2.91383C4.20572 2.94507 4.16885 2.96987 4.12823 2.98679C4.08761 3.00371 4.04404 3.01243 4.00004 3.01243C3.95603 3.01243 3.91247 3.00371 3.87185 2.98679C3.83123 2.96987 3.79436 2.94507 3.76337 2.91383L3.16671 2.31383C3.06705 2.21393 2.94856 2.13479 2.8181 2.08101C2.68765 2.02722 2.54781 1.99986 2.40671 2.00049Z" fill="white"/>
</svg>
