<svg width="8" height="8" viewBox="0 0 8 8" fill="none" xmlns="http://www.w3.org/2000/svg">
<path d="M6.33342 1H1.66675C1.40153 1 1.14718 1.10536 0.959641 1.29289C0.772105 1.48043 0.666748 1.73478 0.666748 2V7C0.66685 7.05907 0.682644 7.11704 0.712515 7.168C0.742385 7.21895 0.785259 7.26106 0.836748 7.29C0.886567 7.31823 0.942819 7.33316 1.00008 7.33333C1.05991 7.33332 1.11863 7.3172 1.17008 7.28667L2.66675 6.38C2.72207 6.34707 2.78575 6.33086 2.85008 6.33333H6.33342C6.59863 6.33333 6.85299 6.22798 7.04052 6.04044C7.22806 5.8529 7.33342 5.59855 7.33342 5.33333V2C7.33342 1.73478 7.22806 1.48043 7.04052 1.29289C6.85299 1.10536 6.59863 1 6.33342 1ZM6.66675 5.33333C6.66675 5.42174 6.63163 5.50652 6.56912 5.56904C6.50661 5.63155 6.42182 5.66667 6.33342 5.66667H2.85008C2.66802 5.66652 2.48938 5.71608 2.33341 5.81L1.33341 6.41V2C1.33341 1.91159 1.36853 1.82681 1.43105 1.7643C1.49356 1.70179 1.57834 1.66667 1.66675 1.66667H6.33342C6.42182 1.66667 6.50661 1.70179 6.56912 1.7643C6.63163 1.82681 6.66675 1.91159 6.66675 2V5.33333Z" fill="white"/>
</svg>
